<?xml version="1.0" encoding="UTF-8" standalone="no"?>
<!-- Created with Inkscape (http://www.inkscape.org/) -->
<svg
   xmlns:dc="http://purl.org/dc/elements/1.1/"
   xmlns:cc="http://creativecommons.org/ns#"
   xmlns:rdf="http://www.w3.org/1999/02/22-rdf-syntax-ns#"
   xmlns:svg="http://www.w3.org/2000/svg"
   xmlns="http://www.w3.org/2000/svg"
   xmlns:sodipodi="http://sodipodi.sourceforge.net/DTD/sodipodi-0.dtd"
   xmlns:inkscape="http://www.inkscape.org/namespaces/inkscape"
   width="210mm"
   height="297mm"
   id="svg2402"
   sodipodi:version="0.32"
   inkscape:version="0.46"
   sodipodi:docname="openfluid-eclipse.svg"
   inkscape:output_extension="org.inkscape.output.svg.inkscape">
  <defs
     id="defs2404">
    <inkscape:perspective
       sodipodi:type="inkscape:persp3d"
       inkscape:vp_x="0 : 526.18109 : 1"
       inkscape:vp_y="0 : 1000 : 0"
       inkscape:vp_z="744.09448 : 526.18109 : 1"
       inkscape:persp3d-origin="372.04724 : 350.78739 : 1"
       id="perspective2410" />
  </defs>
  <sodipodi:namedview
     id="base"
     pagecolor="#ffffff"
     bordercolor="#666666"
     borderopacity="1.0"
     inkscape:pageopacity="0.0"
     inkscape:pageshadow="2"
     inkscape:zoom="5.6"
     inkscape:cx="251.00598"
     inkscape:cy="583.84336"
     inkscape:document-units="px"
     inkscape:current-layer="layer1"
     showgrid="false" />
  <metadata
     id="metadata2407">
    <rdf:RDF>
      <cc:Work
         rdf:about="">
        <dc:format>image/svg+xml</dc:format>
        <dc:type
           rdf:resource="http://purl.org/dc/dcmitype/StillImage" />
      </cc:Work>
    </rdf:RDF>
  </metadata>
  <g
     inkscape:label="Calque 1"
     inkscape:groupmode="layer"
     id="layer1">
    <path
       style="opacity:1;fill:#ffc85f;fill-opacity:1;stroke:none;stroke-width:2;stroke-linecap:butt;stroke-miterlimit:4;stroke-dasharray:none;stroke-dashoffset:0;stroke-opacity:1"
       d="M 456.06103,581.34053 L 499.05871,580.65524 C 500.25608,579.10787 500.33031,576.7902 500.19879,574.245 C 500.19879,574.245 519.8228,588.18383 519.82957,591.73333 C 519.83616,595.21461 497.70188,608.09619 497.70188,608.09619 C 498.70719,604.2962 499.01837,603.97944 498.65649,601.34697 L 447.10522,602.41535 C 439.14105,604.52555 454.24598,586.55646 456.06103,581.34053 z"
       id="path2532"
       sodipodi:nodetypes="ccczcccc"
       inkscape:export-filename="/home/fabrejc/Desktop/openfluid-eclipse.png"
       inkscape:export-xdpi="19.027792"
       inkscape:export-ydpi="19.027792" />
    <path
       style="fill:#917c6f;fill-opacity:1;fill-rule:evenodd;stroke:none;stroke-width:7.00000048;stroke-linecap:round;stroke-linejoin:round;stroke-miterlimit:4;stroke-dasharray:none;stroke-opacity:1"
       d="M 449.34375,561.31989 C 447.41075,561.44901 445.9207,563.68534 446.01563,566.31484 C 446.11055,568.94436 447.7545,570.97132 449.6875,570.8422 L 514.34375,570.8422 C 515.60598,570.8665 516.78004,569.96436 517.41637,568.48128 C 518.05269,566.99819 518.05269,565.16389 517.41637,563.68081 C 516.78004,562.19772 515.60598,561.29559 514.34375,561.31989 L 449.6875,561.31989 C 449.57299,561.31223 449.45826,561.31223 449.34375,561.31989 L 449.34375,561.31989 z"
       id="path3223"
       inkscape:export-filename="/home/fabrejc/Desktop/openfluid-eclipse.png"
       inkscape:export-xdpi="19.027792"
       inkscape:export-ydpi="19.027792" />
    <path
       style="fill:#4f75d1;fill-opacity:1;fill-rule:evenodd;stroke:none;stroke-width:7.00000048;stroke-linecap:round;stroke-linejoin:round;stroke-miterlimit:4;stroke-dasharray:none;stroke-opacity:1"
       d="M 449.34377,546.87154 C 447.41077,547.00066 445.92072,549.23699 446.01565,551.86649 C 446.11057,554.49601 447.75452,556.52297 449.68752,556.39385 L 514.34377,556.39385 C 515.606,556.41815 516.78006,555.51601 517.41639,554.03293 C 518.05271,552.54984 518.05271,550.71554 517.41639,549.23246 C 516.78006,547.74937 515.606,546.84724 514.34377,546.87154 L 449.68752,546.87154 C 449.57301,546.86388 449.45828,546.86388 449.34377,546.87154 L 449.34377,546.87154 z"
       id="path3229"
       inkscape:export-filename="/home/fabrejc/Desktop/openfluid-eclipse.png"
       inkscape:export-xdpi="19.027792"
       inkscape:export-ydpi="19.027792" />
    <path
       style="fill:#4fcd4f;fill-opacity:1;fill-rule:evenodd;stroke:none;stroke-width:7.00000048;stroke-linecap:round;stroke-linejoin:round;stroke-miterlimit:4;stroke-dasharray:none;stroke-opacity:1"
       d="M 449.34374,532.42317 C 447.41074,532.55229 445.92069,534.78862 446.01562,537.41812 C 446.11054,540.04764 447.75449,542.0746 449.68749,541.94548 L 514.34374,541.94548 C 515.60597,541.96978 516.78003,541.06764 517.41636,539.58456 C 518.05268,538.10147 518.05268,536.26717 517.41636,534.78409 C 516.78003,533.301 515.60597,532.39887 514.34374,532.42317 L 449.68749,532.42317 C 449.57298,532.41551 449.45825,532.41551 449.34374,532.42317 L 449.34374,532.42317 z"
       id="path3231"
       inkscape:export-filename="/home/fabrejc/Desktop/openfluid-eclipse.png"
       inkscape:export-xdpi="19.027792"
       inkscape:export-ydpi="19.027792" />
    <path
       style="opacity:1;fill:#ffc85f;fill-opacity:1;stroke:#917c6f;stroke-width:6;stroke-linecap:round;stroke-miterlimit:4;stroke-dasharray:none;stroke-dashoffset:0;stroke-opacity:1;stroke-linejoin:round"
       d="M 215.72024,447.69571 C 215.72024,447.69571 237.5418,449.56787 239.74231,448.06398 C 241.03527,446.50027 241.34839,435.60019 241.11858,430.3512 C 241.11858,430.3512 275.40634,459.09736 275.41817,466.41752 C 275.42968,473.597 236.7559,500.16276 236.7559,500.16276 C 238.5124,492.32602 239.05611,487.19658 238.42382,481.76762 L 210.53962,481.76762 C 198.16365,482.06853 212.54891,458.45255 215.72024,447.69571 z"
       id="path2383"
       sodipodi:nodetypes="ccczcccs"
       inkscape:export-filename="/home/fabrejc/Desktop/openfluid-eclipse.png"
       inkscape:export-xdpi="19.027792"
       inkscape:export-ydpi="19.027792" />
  </g>
</svg>
